#!OML:ASF E:\Steps\Project 1\Capture day 1\Session 2\Subject.ASF
:FULLY-SPECIFIED
:DEGREES
79
root -1.37201 16.2693 21.4012 -154.813 2.80188 181.91
lowerback -25.656 -3.1152 -6.37311
upperback -0.129362 -1.99872 0.783486
thorax 14.5837 -1.27056 3.86155
lowerneck -1.19539 -6.79431 -1.15446
upperneck 15.7486 -8.99737 4.39043
head 5.18863 -3.89124 1.13149
rclavicle 1.15295e-014 1.59028e-014
rhumerus -39.5687 -14.9697 -80.5031
rradius 37.8987
rwrist -6.04034
rhand -7.50359 -56.8713
rfingers 7.12502
rthumb 18.3864 -86.0224
lclavicle 1.15295e-014 1.59028e-014
lhumerus -30.413 2.91793 81.0232
lradius 24.7884
lwrist -1.69768
lhand -21.7859 -13.462
lfingers 7.12502
lthumb 4.61552 16.4677
rfemur -29.7372 8.33706 22.0376
rtibia 16.9571
rfoot -21.2055 1.89145
rtoes -21.9502
lfemur -28.3737 -9.03643 -19.003
ltibia 17.1686
lfoot -12.695 6.02123
ltoes -39.2788
80
root -1.37355 16.2638 21.4073 -154.609 2.91905 181.977
lowerback -25.7883 -3.17363 -6.40091
upperback -0.148519 -2.04513 0.740614
thorax 14.6401 -1.28917 3.80858
lowerneck -1.23103 -6.80428 -1.2106
upperneck 15.575 -9.05357 4.65435
head 5.15731 -3.91564 1.21844
rclavicle 3.18055e-015 -7.15625e-015
rhumerus -39.5334 -15.0304 -80.6018
rradius 38.0689
rwrist -6.04958
rhand -9.88539 -52.1702
rfingers 7.12502
rthumb 16.094 -81.5219
lclavicle 3.18055e-015 -7.15625e-015
lhumerus -30.3822 3.12249 80.7554
lradius 24.7853
lwrist -1.88708
lhand -21.9704 -13.4698
lfingers 7.12502
lthumb 4.43736 16.4637
rfemur -30.7006 8.09217 22.1613
rtibia 18.3546
rfoot -22.07 1.99665
rtoes -24.5943
lfemur -28.725 -8.76806 -18.978
ltibia 17.4663
lfoot -12.7483 5.90956
ltoes -40.1541
81
root -1.37231 16.2651 21.408 -154.731 2.92956 182.05
lowerback -25.2562 -3.22657 -6.46186
upperback -0.315094 -2.13189 0.729902
thorax 14.156 -1.31191 3.80876
lowerneck -1.16989 -6.83109 -1.19203
upperneck 15.7137 -9.08573 4.68176
head 5.19145 -3.91956 1.22315
rclavicle -1.78906e-015 9.54166e-015
rhumerus -39.9428 -14.983 -80.566
rradius 38.3483
rwrist -5.98009
rhand -7.70602 -55.3192
rfingers 7.12502
rthumb 18.1917 -84.4885
lclavicle -1.78906e-015 9.54166e-015
lhumerus -30.8402 3.01875 80.5651
lradius 24.9146
lwrist -1.91324
lhand -22.0434 -13.4711
lfingers 7.12502
lthumb 4.36682 16.4639
rfemur -31.2795 8.00193 22.2788
rtibia 19.7629
rfoot -23.1673 1.66731
rtoes -28.6369
lfemur -28.7009 -8.71901 -18.9108
ltibia 17.7259
lfoot -12.9343 5.83756
ltoes -39.3888
82
root -1.37152 16.2599 21.4079 -154.73 3.15551 182.091
lowerback -25.39 -3.2382 -6.50899
upperback -0.235904 -2.11276 0.643684
thorax 14.3213 -1.31049 3.73941
lowerneck -1.32771 -6.95717 -0.933674
upperneck 15.7452 -9.25476 4.43537
head 5.21002 -4.00465 1.09109
rclavicle -3.18055e-015 -3.97569e-014
rhumerus -39.8658 -15.066 -80.6318
rradius 38.4641
rwrist -5.63587
rhand -7.27789 -53.2245
rfingers 7.12502
rthumb 18.6035 -82.3549
lclavicle -3.18055e-015 -3.97569e-014
lhumerus -30.8853 2.73089 80.4121
lradius 25.073
lwrist -1.62985
lhand -21.8034 -13.2398
lfingers 7.12502
lthumb 4.59861 16.6903
rfemur -32.1253 7.83795 22.3476
rtibia 21.454
rfoot -24.2452 1.38449
rtoes -32.24
lfemur -28.7737 -8.67935 -18.8967
ltibia 17.9457
lfoot -13.2054 5.95608
ltoes -38.0839
83
root -1.36925 16.257 21.4132 -154.701 3.35104 182.028
lowerback -25.0721 -3.33973 -6.81077
upperback -0.415408 -2.17347 0.646226
thorax 13.9514 -1.33834 3.90195
lowerneck -1.06683 -7.08911 -0.883682
upperneck 15.5364 -9.4155 4.30141
head 5.09759 -4.10262 1.04571
rclavicle 1.09332e-014 -7.15625e-015
rhumerus -40.1317 -14.7777 -80.6676
rradius 38.6327
rwrist -6.15243
rhand -9.38325 -53.9218
rfingers 7.12502
rthumb 16.5775 -83.2338
lclavicle 1.09332e-014 -7.15625e-015
lhumerus -31.2391 2.73595 80.2952
lradius 25.1542
lwrist -1.58222
lhand -21.5943 -13.4444
lfingers 7.12502
lthumb 4.80051 16.4812
rfemur -33.1706 7.49821 22.3246
rtibia 23.4653
rfoot -25.2164 1.14454
rtoes -35.5819
lfemur -28.8918 -8.75741 -18.9714
ltibia 18.1008
lfoot -13.3739 6.16891
ltoes -38.2481
84
root -1.36602 16.2541 21.4175 -154.681 3.62544 182.02
lowerback -25.1065 -3.36049 -6.99207
upperback -0.367216 -2.13015 0.540851
thorax 14.026 -1.33035 3.89884
lowerneck -1.10065 -7.09783 -0.79044
upperneck 15.4051 -9.45377 4.39645
head 5.06399 -4.11827 1.05817
rclavicle -1.8487e-014 1.27222e-014
rhumerus -40.0963 -14.8106 -80.8488
rradius 38.8292
rwrist -6.14334
rhand -9.5522 -53.3687
rfingers 7.12502
rthumb 16.4148 -82.6942
lclavicle -1.8487e-014 1.27222e-014
lhumerus -31.139 2.8165 79.9992
lradius 25.0367
lwrist -1.83679
lhand -21.7723 -13.8855
lfingers 7.12502
lthumb 4.6286 16.044
rfemur -34.3354 7.13927 22.3706
rtibia 25.7465
rfoot -26.0461 0.926883
rtoes -38.8834
lfemur -28.9698 -8.73628 -19.0177
ltibia 18.2204
lfoot -13.4594 6.3054
ltoes -38.7779
85
root -1.36257 16.2508 21.4244 -154.648 3.92671 182.02
lowerback -25.0295 -3.388 -7.19628
upperback -0.375651 -2.10266 0.475322
thorax 13.9759 -1.32672 3.95204
lowerneck -1.26411 -7.08615 -0.759781
upperneck 15.4746 -9.45483 4.42689
head 5.11307 -4.11249 1.05533
rclavicle 2.18663e-015 5.56597e-015
rhumerus -40.0968 -14.5731 -81.0558
rradius 38.9923
rwrist -6.6176
rhand -10.0814 -52.0998
rfingers 7.12502
rthumb 15.9052 -81.4667
lclavicle 2.18663e-015 5.56597e-015
lhumerus -31.1464 2.89521 79.7703
lradius 24.9746
lwrist -1.98803
lhand -22.1894 -14.0133
lfingers 7.12502
lthumb 4.22583 15.9245
rfemur -35.5809 6.82155 22.3925
rtibia 28.0615
rfoot -26.2537 0.862292
rtoes -39.9792
lfemur -29.1213 -8.65109 -19.0555
ltibia 18.4767
lfoot -13.5735 6.36763
ltoes -38.1723
86
root -1.35997 16.2462 21.4301 -154.605 4.19558 181.994
lowerback -24.9682 -3.40258 -7.40335
upperback -0.384809 -2.05528 0.407612
thorax 13.931 -1.31391 4.01155
lowerneck -1.31388 -7.10616 -0.808214
upperneck 15.4279 -9.49894 4.51651
head 5.11497 -4.13519 1.08635
rclavicle 7.35503e-015 1.82882e-014
rhumerus -40.0837 -14.4804 -81.1567
rradius 39.3481
rwrist -6.45229
rhand -9.76678 -53.7349
rfingers 7.12502
rthumb 16.2082 -83.0773
lclavicle 7.35503e-015 1.82882e-014
lhumerus -31.2047 2.8437 79.6053
lradius 25.0577
lwrist -1.92535
lhand -22.3658 -13.9739
lfingers 7.12502
lthumb 4.05555 15.9672
rfemur -36.9185 6.66795 22.3148
rtibia 30.5957
rfoot -26.8502 0.985546
rtoes -40.3966
lfemur -29.2685 -8.55721 -19.1321
ltibia 18.7202
lfoot -13.6513 6.57559
ltoes -37.9948
87
root -1.35598 16.2449 21.4399 -154.673 4.2957 181.925
lowerback -24.9402 -3.45171 -7.5776
upperback -0.245834 -2.05914 0.277872
thorax 14.0834 -1.33466 3.95696
lowerneck -1.50798 -7.1174 -0.764641
upperneck 15.4447 -9.54299 4.59956
head 5.15622 -4.14959 1.09453
rclavicle 2.42517e-014 4.77083e-015
rhumerus -39.7945 -14.5909 -81.3915
rradius 39.3632
rwrist -6.75088
rhand -10.1666 -52.9196
rfingers 7.12502
rthumb 15.8233 -82.293
lclavicle 2.42517e-014 4.77083e-015
lhumerus -31.084 2.63729 79.3663
lradius 25.2029
lwrist -1.78664
lhand -22.1853 -13.6178
lfingers 7.12502
lthumb 4.22983 16.3199
rfemur -38.1895 6.36048 22.2771
rtibia 33.4047
rfoot -27.6074 0.442656
rtoes -39.3867
lfemur -29.3666 -8.51938 -19.2266
ltibia 19.0029
lfoot -13.7407 6.67422
ltoes -38.339
88
root -1.34951 16.2479 21.4417 -155.047 4.31901 181.865
lowerback -24.3814 -3.55578 -7.83187
upperback -0.211666 -2.181 0.238214
thorax 13.8367 -1.40465 4.02036
lowerneck -1.53225 -7.08811 -0.853188
upperneck 15.526 -9.5086 4.66539
head 5.19184 -4.12987 1.12848
rclavicle 2.3059e-014 4.92986e-014
rhumerus -39.7695 -14.5065 -81.4567
rradius 39.3299
rwrist -6.99382
rhand -10.0845 -52.1858
rfingers 7.12502
rthumb 15.9022 -81.5529
lclavicle 2.3059e-014 4.92986e-014
lhumerus -31.3294 2.54804 79.1706
lradius 25.3767
lwrist -1.66644
lhand -21.8969 -13.1073
lfingers 7.12502
lthumb 4.50834 16.8247
rfemur -38.9643 5.73464 22.4321
rtibia 36.012
rfoot -28.248 -0.536872
rtoes -38.3543
lfemur -28.9965 -8.60403 -19.303
ltibia 19.0899
lfoot -13.8729 6.71007
ltoes -38.0502
89
root -1.34392 16.2545 21.4351 -155.622 4.20875 181.74
lowerback -23.8241 -3.68757 -8.12026
upperback -0.012573 -2.34124 0.190432
thorax 13.7926 -1.51193 4.07708
lowerneck -1.71229 -7.02889 -1.01748
upperneck 15.5906 -9.4514 4.81565
head 5.25542 -4.0996 1.19565
rclavicle -7.15625e-015 1.74931e-014
rhumerus -39.6469 -14.4179 -81.5721
rradius 39.4044
rwrist -7.25629
rhand -10.2609 -51.7973
rfingers 7.12502
rthumb 15.7324 -81.1779
lclavicle -7.15625e-015 1.74931e-014
lhumerus -31.3485 2.53418 79.0057
lradius 25.4251
lwrist -1.49045
lhand -21.841 -13.057
lfingers 7.12502
lthumb 4.56225 16.8739
rfemur -39.4238 4.85142 22.5879
rtibia 38.4658
rfoot -28.8367 -1.75344
rtoes -39.2469
lfemur -28.2709 -8.88547 -19.4544
ltibia 18.9929
lfoot -13.9956 6.86476
ltoes -37.9667
90
root -1.3412 16.2538 21.4281 -156.032 4.16799 181.693
lowerback -23.5518 -3.73911 -8.21782
upperback 0.206061 -2.40661 0.0799054
thorax 13.9063 -1.56275 3.9813
lowerneck -1.89819 -7.03549 -1.08279
upperneck 15.63 -9.48919 4.95617
head 5.3103 -4.11177 1.23906
rclavicle -2.98177e-014 -1.51076e-014
rhumerus -39.4986 -14.5008 -81.7836
rradius 39.7334
rwrist -7.61007
rhand -10.6121 -53.0228
rfingers 7.12502
rthumb 15.3942 -82.4296
lclavicle -2.98177e-014 -1.51076e-014
lhumerus -31.2207 2.3911 78.7952
lradius 25.4014
lwrist -1.29202
lhand -21.9831 -13.3902
lfingers 7.12502
lthumb 4.42512 16.5435
rfemur -40.2439 4.04815 22.7392
rtibia 41.2694
rfoot -29.5245 -2.6542
rtoes -39.6661
lfemur -27.7409 -9.05332 -19.5632
ltibia 18.9412
lfoot -14.0512 7.02461
ltoes -38.4859
91
root -1.33854 16.2498 21.4274 -156.285 4.21993 181.83
lowerback -23.2783 -3.70067 -8.16527
upperback 0.304519 -2.39705 0.0128649
thorax 13.8602 -1.55884 3.88103
lowerneck -1.6162 -7.18575 -0.962956
upperneck 15.2107 -9.70512 5.0139
head 5.13712 -4.23226 1.24091
rclavicle -6.55989e-015 1.35174e-014
rhumerus -39.5548 -14.8228 -81.7288
rradius 39.7972
rwrist -7.44269
rhand -10.2675 -52.9139
rfingers 7.12502
rthumb 15.726 -82.2949
lclavicle -6.55989e-015 1.35174e-014
lhumerus -31.1574 2.23854 78.5721
lradius 25.3066
lwrist -1.34045
lhand -21.8768 -13.5754
lfingers 7.12502
lthumb 4.52772 16.3562
rfemur -41.4256 3.37592 23.0306
rtibia 44.3982
rfoot -30.1492 -3.13267
rtoes -38.6968
lfemur -27.4973 -9.0097 -19.4748
ltibia 19.062
lfoot -14.0746 7.12414
ltoes -39.162
92
root -1.33304 16.2512 21.4318 -156.479 4.37915 182.001
lowerback -22.8101 -3.63577 -8.09894
upperback 0.239372 -2.36888 -0.0631346
thorax 13.5062 -1.52601 3.77948
lowerneck -0.97746 -7.43759 -0.715264
upperneck 14.4282 -10.0471 5.06947
head 4.7906 -4.4289 1.23598
rclavicle -1.03368e-014 2.38542e-015
rhumerus -39.8876 -14.8391 -81.7561
rradius 39.956
rwrist -7.42124
rhand -9.91453 -52.372
rfingers 7.12502
rthumb 16.066 -81.726
lclavicle -1.03368e-014 2.38542e-015
lhumerus -31.3357 2.04569 78.3213
lradius 25.2203
lwrist -1.36082
lhand -22.5502 -13.4983
lfingers 7.12502
lthumb 3.8775 16.4461
rfemur -42.7227 2.85702 23.3154
rtibia 47.5648
rfoot -30.5267 -3.98966
rtoes -38.8122
lfemur -27.365 -8.86021 -19.3211
ltibia 19.2387
lfoot -14.1546 7.33546
ltoes -40.0981
